HIERARCHY
ROOT joint_Root
{
	OFFSET 0.0 0.0 0.0
	CHANNELS 6 Xposition Yposition Zposition Zrotation Xrotation Yrotation 
	JOINT Hips
	{
		OFFSET 4.5925 91.4895 -427.239
		CHANNELS 6 Xposition Yposition Zposition Zrotation Xrotation Yrotation 
		JOINT Spine
		{
			OFFSET 15.7357 0.0 0.0
			CHANNELS 6 Xposition Yposition Zposition Zrotation Xrotation Yrotation 
			JOINT Chest
			{
				OFFSET 8.98455 -0.406207 0.0
				CHANNELS 6 Xposition Yposition Zposition Zrotation Xrotation Yrotation 
				JOINT Neck
				{
					OFFSET 16.3773 0.0 0.0
					CHANNELS 6 Xposition Yposition Zposition Zrotation Xrotation Yrotation 
					JOINT Head
					{
						OFFSET 6.45672 0.0 0.0
						CHANNELS 6 Xposition Yposition Zposition Zrotation Xrotation Yrotation 
						End Site
						{
							OFFSET 0.0 0.0 0.0
						}
					}
				}
				JOINT Shoulder_L
				{
					OFFSET 12.9942 -0.242716 4.98039
					CHANNELS 6 Xposition Yposition Zposition Zrotation Xrotation Yrotation 
					JOINT UpperArm_L
					{
						OFFSET 5.34809 0.0 0.0
						CHANNELS 6 Xposition Yposition Zposition Zrotation Xrotation Yrotation 
						JOINT LowerArm_L
						{
							OFFSET 24.3286 1.87007e-05 0.0
							CHANNELS 6 Xposition Yposition Zposition Zrotation Xrotation Yrotation 
							JOINT Hand_L
							{
								OFFSET 22.2916 0.0 0.0
								CHANNELS 6 Xposition Yposition Zposition Zrotation Xrotation Yrotation 
								End Site
								{
									OFFSET 0.0 0.0 0.0
								}
							}
						}
					}
				}
				JOINT Shoulder_R
				{
					OFFSET 12.9945 -0.242716 -4.98039
					CHANNELS 6 Xposition Yposition Zposition Zrotation Xrotation Yrotation 
					JOINT UpperArm_R
					{
						OFFSET -5.34813 0.0 0.0
						CHANNELS 6 Xposition Yposition Zposition Zrotation Xrotation Yrotation 
						JOINT LowerArm_R
						{
							OFFSET -24.3289 0.000322201 0.0
							CHANNELS 6 Xposition Yposition Zposition Zrotation Xrotation Yrotation 
							JOINT Hand_R
							{
								OFFSET -22.2915 -0.000108084 0.0
								CHANNELS 6 Xposition Yposition Zposition Zrotation Xrotation Yrotation 
								End Site
								{
									OFFSET 0.0 0.0 0.0
								}
							}
						}
					}
				}
			}
		}
		JOINT UpperLeg_L
		{
			OFFSET -2.19248 -6.46944 0.0
			CHANNELS 6 Xposition Yposition Zposition Zrotation Xrotation Yrotation 
			JOINT LowerLeg_L
			{
				OFFSET 39.0811 0.0 -1.23785e-05
				CHANNELS 6 Xposition Yposition Zposition Zrotation Xrotation Yrotation 
				JOINT Foot_L
				{
					OFFSET 40.9854 0.0 -1.26872e-05
					CHANNELS 6 Xposition Yposition Zposition Zrotation Xrotation Yrotation 
					JOINT Toes_L
					{
						OFFSET 11.7543 0.0 0.0
						CHANNELS 6 Xposition Yposition Zposition Zrotation Xrotation Yrotation 
						End Site
						{
							OFFSET 0.0 0.0 0.0
						}
					}
				}
			}
		}
		JOINT UpperLeg_R
		{
			OFFSET -2.19251 6.46944 0.0
			CHANNELS 6 Xposition Yposition Zposition Zrotation Xrotation Yrotation 
			JOINT LowerLeg_R
			{
				OFFSET -39.0811 -0.00228153 -0.0401928
				CHANNELS 6 Xposition Yposition Zposition Zrotation Xrotation Yrotation 
				JOINT Foot_R
				{
					OFFSET -40.9854 0.0 0.0
					CHANNELS 6 Xposition Yposition Zposition Zrotation Xrotation Yrotation 
					JOINT Toes_R
					{
						OFFSET -11.7543 0.0 0.0
						CHANNELS 6 Xposition Yposition Zposition Zrotation Xrotation Yrotation 
						End Site
						{
							OFFSET 0.0 0.0 0.0
						}
					}
				}
			}
		}
	}
}
MOTION
Frames:	6
Frame Time:	0.0333333
0.000000 0.000000 0.000000 0.000000 0.000000 -0.000000 -3.258890 91.943800 -3.069240 88.221600 5.294860 2.321310 15.735700 0.000005 -0.000001 88.683400 86.038100 -91.149800 8.984550 -0.406207 -0.000000 0.160132 -0.018429 -4.929450 16.377300 -0.000001 -0.000001 4.175380 -6.002300 6.025400 6.456720 -0.000001 -0.000000 -4.006380 -3.844800 -2.384560 12.994200 -0.242716 4.980390 -91.470700 3.578860 -67.643500 5.348090 -0.000007 -0.000001 -63.535000 18.017800 -5.269050 24.328600 0.000019 0.000005 8.707090 19.980100 -24.141900 22.291600 -0.000001 0.000005 13.752100 5.157180 3.770980 12.994500 -0.242716 -4.980390 94.558800 -10.844300 -67.033000 -5.348130 -0.000001 -0.000004 -34.032400 -67.931700 -74.236800 -24.328900 0.000322 -0.000009 -6.188670 -5.124180 -50.522500 -22.291500 -0.000108 -0.000004 18.295200 5.508710 -6.888710 -2.192480 -6.469440 -0.000000 -173.822000 -9.790510 -8.945360 39.081100 -0.000007 -0.000012 -0.090263 0.185668 25.927000 40.985400 -0.000006 -0.000013 -0.461806 10.651600 -64.902200 11.754300 -0.000000 0.000003 -0.000017 -0.000215 -16.586000 -2.192510 6.469440 -0.000001 -178.977000 26.059900 174.070000 -39.081100 -0.002282 -0.040193 0.005810 -0.005615 23.963600 -40.985400 0.000008 0.000006 7.491170 10.876900 -67.341000 -11.754300 -0.000006 -0.000006 -0.004662 -0.058154 -18.939000
0.000000 0.000000 0.000000 0.000000 0.000000 -0.000000 -3.001800 91.952600 -3.143120 88.211300 4.347630 2.251910 15.735700 0.000005 -0.000001 88.531400 86.005900 -90.780000 8.984550 -0.406207 -0.000000 0.222394 -0.056753 -4.494000 16.377300 -0.000001 -0.000001 3.844650 -5.443900 5.632660 6.456720 -0.000001 -0.000000 -4.033040 -3.466190 -2.062110 12.994200 -0.242716 4.980390 -91.546200 3.738540 -67.511900 5.348090 -0.000007 -0.000001 -63.685800 18.850000 -5.900010 24.328600 0.000019 0.000005 8.291590 19.996100 -23.082500 22.291600 -0.000001 0.000005 13.605300 5.151720 3.902120 12.994500 -0.242716 -4.980390 94.009200 -9.831570 -67.683700 -5.348130 -0.000001 -0.000004 -30.392300 -64.629600 -66.877200 -24.328900 0.000322 -0.000009 -5.849840 -3.415850 -59.828800 -22.291500 -0.000108 -0.000004 18.721600 5.498230 -6.462530 -2.192480 -6.469440 -0.000000 -174.028000 -9.708980 -8.913770 39.081100 -0.000007 -0.000012 -0.092988 0.190916 25.969100 40.985400 -0.000006 -0.000013 -0.494987 9.608950 -65.001100 11.754300 -0.000000 0.000003 -0.000018 -0.000224 -16.586300 -2.192510 6.469440 -0.000001 -179.148000 25.753500 173.900000 -39.081100 -0.002282 -0.040193 -0.002153 0.012283 23.993400 -40.985400 0.000008 0.000006 7.270920 11.605100 -67.197700 -11.754300 -0.000006 -0.000006 -0.004709 -0.058618 -18.957900
0.000000 0.000000 0.000000 0.000000 0.000000 -0.000000 -2.734150 91.947700 -3.188910 88.169100 3.295660 2.238700 15.735700 0.000005 -0.000001 87.837600 85.947000 -89.845800 8.984550 -0.406207 -0.000000 0.334320 -0.175600 -4.013170 16.377300 -0.000001 -0.000001 3.546940 -4.840660 5.163070 6.456720 -0.000001 -0.000000 -4.072480 -3.007130 -1.787970 12.994200 -0.242716 4.980390 -91.663900 4.014380 -67.464900 5.348090 -0.000007 -0.000001 -63.814400 19.835600 -6.251030 24.328600 0.000019 0.000005 7.969810 19.973800 -22.286500 22.291600 -0.000001 0.000005 13.766700 5.143570 4.096530 12.994500 -0.242716 -4.980390 93.432000 -8.921050 -68.857900 -5.348130 -0.000001 -0.000004 -27.367800 -60.244600 -58.955400 -24.328900 0.000322 -0.000009 -5.160780 -1.849050 -70.348600 -22.291500 -0.000108 -0.000004 18.830400 5.487780 -6.049520 -2.192480 -6.469440 -0.000000 -174.187000 -9.773830 -8.831400 39.081100 -0.000007 -0.000012 -0.093460 0.190739 26.104300 40.985400 -0.000006 -0.000013 -0.504675 8.628520 -65.182200 11.754300 -0.000000 0.000003 -0.000020 -0.000250 -16.587400 -2.192510 6.469440 -0.000001 -179.351000 25.473500 173.797000 -39.081100 -0.002282 -0.040193 -0.015328 0.041772 24.050200 -40.985400 0.000008 0.000006 6.928660 12.498400 -67.053600 -11.754300 -0.000006 -0.000006 -0.004601 -0.057554 -18.914600
0.000000 0.000000 0.000000 0.000000 0.000000 -0.000000 -2.441800 91.938400 -3.193480 88.193200 2.044900 2.279500 15.735700 0.000005 -0.000001 88.214300 85.865900 -90.014800 8.984550 -0.406207 -0.000000 0.498426 -0.143442 -3.597740 16.377300 -0.000001 -0.000001 3.144160 -4.235480 4.607470 6.456720 -0.000001 -0.000000 -3.962280 -2.690980 -1.434900 12.994200 -0.242716 4.980390 -91.738300 4.216550 -67.571900 5.348090 -0.000007 -0.000001 -64.075000 20.782700 -6.588270 24.328600 0.000019 0.000005 7.676430 20.023800 -21.486400 22.291600 -0.000001 0.000005 13.561300 5.146450 4.028130 12.994500 -0.242716 -4.980390 92.662000 -7.421300 -70.204500 -5.348130 -0.000001 -0.000004 -24.531700 -54.426000 -51.469600 -24.328900 0.000322 -0.000009 -4.548510 -0.784702 -80.237600 -22.291500 -0.000108 -0.000004 18.784800 5.478820 -5.703340 -2.192480 -6.469440 -0.000000 -174.381000 -10.198300 -8.611520 39.081100 -0.000007 -0.000012 -0.099269 0.201751 26.199100 40.985400 -0.000006 -0.000013 -0.480315 7.789420 -65.381800 11.754300 -0.000000 0.000003 -0.000025 -0.000311 -16.589700 -2.192510 6.469440 -0.000001 -179.678000 25.041300 173.745000 -39.081100 -0.002282 -0.040193 -0.030962 0.076448 24.149200 -40.985400 0.000008 0.000006 6.441040 13.421600 -66.888300 -11.754300 -0.000006 -0.000006 -0.004482 -0.056358 -18.865900
0.000000 0.000000 0.000000 0.000000 0.000000 -0.000000 -2.176830 91.921600 -3.157900 88.230600 0.830696 2.414250 15.735700 0.000005 -0.000001 88.343600 85.721500 -89.924000 8.984550 -0.406207 -0.000000 0.787194 -0.151051 -3.157390 16.377300 -0.000001 -0.000001 2.593540 -3.673380 4.058590 6.456720 -0.000001 -0.000000 -3.834840 -2.248910 -1.224670 12.994200 -0.242716 4.980390 -91.804600 4.382790 -67.594700 5.348090 -0.000007 -0.000001 -64.392100 22.054600 -6.979050 24.328600 0.000019 0.000005 7.418280 19.876600 -20.954300 22.291600 -0.000001 0.000005 13.283500 5.149270 3.960720 12.994500 -0.242716 -4.980390 91.792200 -5.359110 -71.482100 -5.348130 -0.000001 -0.000004 -22.691500 -46.867100 -45.456500 -24.328900 0.000322 -0.000009 -4.139130 -0.115715 -88.398300 -22.291500 -0.000108 -0.000004 18.506300 5.467990 -5.294910 -2.192480 -6.469440 -0.000000 -174.544000 -10.700300 -8.277820 39.081100 -0.000007 -0.000012 -0.101972 0.206304 26.302500 40.985400 -0.000006 -0.000013 -0.440332 7.107980 -65.613000 11.754300 -0.000000 0.000003 -0.000027 -0.000334 -16.590600 -2.192510 6.469440 -0.000001 179.939000 24.807500 173.802000 -39.081100 -0.002282 -0.040193 -0.046719 0.110829 24.296400 -40.985400 0.000008 0.000006 6.149730 14.484900 -66.827000 -11.754300 -0.000006 -0.000006 -0.004425 -0.055788 -18.842700
0.000000 0.000000 0.000000 0.000000 0.000000 -0.000000 -1.920970 91.897200 -3.090100 88.271500 -0.442613 2.538390 15.735700 0.000005 -0.000001 88.532300 85.581300 -89.872000 8.984550 -0.406207 -0.000000 1.068080 -0.147976 -2.675830 16.377300 -0.000001 -0.000001 2.065900 -3.111550 3.484930 6.456720 -0.000001 -0.000000 -3.741420 -1.818950 -0.993373 12.994200 -0.242716 4.980390 -91.883900 4.568140 -67.560500 5.348090 -0.000007 -0.000001 -64.822700 23.264400 -7.219710 24.328600 0.000019 0.000005 7.338110 19.689100 -20.918200 22.291600 -0.000001 0.000005 12.943900 5.149950 3.944420 12.994500 -0.242716 -4.980390 90.876900 -2.888940 -73.115700 -5.348130 -0.000001 -0.000004 -20.700000 -37.626000 -39.654800 -24.328900 0.000322 -0.000009 -4.031050 0.294709 -94.170100 -22.291500 -0.000108 -0.000004 17.977400 5.460470 -5.017450 -2.192480 -6.469440 -0.000000 -174.698000 -11.331100 -7.955200 39.081100 -0.000007 -0.000012 -0.103302 0.207796 26.433600 40.985400 -0.000006 -0.000013 -0.398234 6.470140 -65.867900 11.754300 -0.000000 0.000003 -0.000034 -0.000402 -16.593200 -2.192510 6.469440 -0.000001 179.540000 24.607000 173.850000 -39.081100 -0.002282 -0.040193 -0.062859 0.145428 24.466300 -40.985400 0.000008 0.000006 5.848090 15.672000 -66.784600 -11.754300 -0.000006 -0.000006 -0.004319 -0.054720 -18.799200
